# xmcd
#
# Track frame offsets:
#	150
#	18164
#	38598
#	57028
#	72758
#	93008
#	108951
#	123185
#	140569
#	155211
#	172188
#	192290
#	207089
#	224058
#	237540
#	251732
#	265566
#	281490
#
# Disc length: 3967 seconds
#
# Revision: 3
# Processed by: cddbd v1.5.1PL0 Copyright (c) Steve Scherf et al.
# Submitted via: audiograbber 1.83.01
#
DISCID=030f7d12
DTITLE=2004-02 Country Radio - 2004-02 Country Radio
DYEAR=2004
DGENRE=Country
TTITLE0=Big and Rich - Wild West Show
TTITLE1=Rascal Flatts - Mayberry
TTITLE2=George Strait - Desperately
TTITLE3=Diamond Rio - We All Fall Down
TTITLE4=Wynonna Feat. Naomi Judd - Flies On The Butter (You Can't Go Home Again
TTITLE4=)
TTITLE5=Emerson Drive - Last One Standing
TTITLE6=Joe Diffie - Tougher Than Nails
TTITLE7=Reba McEntire - Somebody
TTITLE8=Jeff Bates - I Wanna Make You Cry
TTITLE9=Trini Triggs - Heaven On Earth
TTITLE10=John Michael Montgomery - Letters From Home
TTITLE11=Jill King - 98.6 and Fallin'
TTITLE12=Colt Prather - I Won't Go On and On
TTITLE13=Rick Trevino - Overnight Success (Album Version)
TTITLE14=David Lee Murphy - Loco
TTITLE15=Amy Dalley - Men Don't Change
TTITLE16=Connie Smith, Sharon White and Barbara Fairchild - Secret Place
TTITLE17=Jo Dee Messina - I Wish (Acoustic Version)
EXTD=
EXTT0=
EXTT1=
EXTT2=
EXTT3=
EXTT4=
EXTT5=
EXTT6=
EXTT7=
EXTT8=
EXTT9=
EXTT10=
EXTT11=
EXTT12=
EXTT13=
EXTT14=
EXTT15=
EXTT16=
EXTT17=
PLAYORDER=
